<svg id="Layer_5" enable-background="new 0 0 64 64" height="512" viewBox="0 0 64 64" width="512" xmlns="http://www.w3.org/2000/svg"><path d="m32 39c1.654 0 3 1.346 3 3h2c0-1.627-.793-3.061-2-3.974v-3.026h-2v2.101c-.323-.066-.658-.101-1-.101h-1v-2h-2v2h-2v5c0 2.757 2.243 5 5 5 1.654 0 3 1.346 3 3v3h-3c-1.654 0-3-1.346-3-3h-2c0 1.627.793 3.061 2 3.974v3.026h2v-2.101c.323.066.658.101 1 .101h1v2h2v-2h2v-5c0-2.757-2.243-5-5-5-1.654 0-3-1.346-3-3v-3z"/><path d="m38.398 55.195 1.203 1.598c.832-.626 1.569-1.364 2.192-2.192l-1.6-1.201c-.508.677-1.112 1.282-1.795 1.795z"/><path d="m41.8 41.398-1.6 1.199c1.16 1.549 1.8 3.467 1.8 5.4 0 1.251-.253 2.462-.752 3.601l1.832.803c.61-1.393.92-2.874.92-4.403 0-2.364-.781-4.708-2.2-6.6z"/><path d="m61.226 19.267-25.009-16.972c-2.502-1.693-5.932-1.694-8.434.001l-14.783 10.031v-3.327h2v-6h-12v6h2v8.756l-2.225 1.51c-1.112.753-1.775 2.005-1.775 3.348v.34c0 1.867 1.278 3.427 3 3.891v32.155h16.838c2.676 2.474 6.241 4 10.164 4h1.996c3.923 0 7.488-1.526 10.164-4h16.838v-32.154c1.722-.465 3-2.025 3-3.891v-.34c0-1.344-.663-2.596-1.774-3.348zm-56.226-14.267h8v2h-8zm2 4h4v4.685l-4 2.714zm25.998 52h-1.996c-7.169 0-13.002-5.833-13.002-13.002 0-2.993 1.044-5.917 2.939-8.233l5.535-6.765h11.053l5.535 6.766c1.894 2.315 2.938 5.239 2.938 8.232 0 7.169-5.833 13.002-13.002 13.002zm4.502-30h-11l-5.1-6.799c-.257-.346-.4-.771-.4-1.201 0-1.103.897-2 2-2 .485 0 .808.478 1.376 1.49.596 1.06 1.41 2.51 3.119 2.51 1.71 0 2.525-1.45 3.121-2.51.57-1.013.892-1.49 1.379-1.49s.81.478 1.38 1.49c.596 1.06 1.412 2.51 3.122 2.51 1.711 0 2.527-1.45 3.123-2.51.57-1.012.893-1.49 1.38-1.49 1.103 0 2 .897 2 2 0 .43-.143.855-.399 1.2zm7.471 26c1.892-2.511 3.029-5.622 3.029-9.002 0-3.454-1.204-6.827-3.391-9.499l-5.34-6.526 4.931-6.575c.516-.688.8-1.54.8-2.398 0-2.206-1.794-4-4-4-1.71 0-2.526 1.45-3.122 2.509-.57 1.013-.893 1.491-1.381 1.491-.487 0-.81-.478-1.38-1.49-.596-1.06-1.412-2.51-3.122-2.51s-2.525 1.45-3.121 2.51c-.57 1.013-.892 1.49-1.379 1.49-.485 0-.807-.477-1.375-1.489-.596-1.06-1.411-2.511-3.12-2.511-2.206 0-4 1.794-4 4 0 .858.284 1.71.8 2.399l4.93 6.574-5.339 6.525c-2.187 2.673-3.391 6.046-3.391 9.5 0 3.38 1.137 6.491 3.029 9.002h-13.029v-30.125c.481-.117.941-.311 1.354-.598l24.646-17.113 24.646 17.113c.414.287.873.481 1.354.598v30.125zm16.029-34.046c0 1.128-.918 2.046-2.046 2.046-.42 0-.823-.126-1.167-.365l-25.396-17.635h-.781l-25.398 17.635c-.343.239-.746.365-1.166.365-1.128 0-2.046-.918-2.046-2.046v-.34c0-.68.335-1.312.897-1.693l25.009-16.97c1.834-1.244 4.354-1.243 6.188-.001l25.01 16.972c.561.38.896 1.013.896 1.692z"/><path d="m54 53h2v2h-2z"/><path d="m54 49h2v2h-2z"/><path d="m54 45h2v2h-2z"/><path d="m8 28h2v2h-2z"/><path d="m8 32h2v2h-2z"/><path d="m8 36h2v2h-2z"/></svg>