<svg height="512" viewBox="0 0 64 64" width="512" xmlns="http://www.w3.org/2000/svg"><g id="Online_Shopping" data-name="Online Shopping"><path d="m41 34h-4a1 1 0 0 0 -1 1v7h-8v-7a1 1 0 0 0 -1-1h-4a1 1 0 0 0 -1 1v8a5.006 5.006 0 0 0 5 5h10a5.006 5.006 0 0 0 5-5v-8a1 1 0 0 0 -1-1zm-1 2v2h-2v-2zm-14 0v2h-2v-2zm11 10h-10a3 3 0 0 1 -3-3v-3h2v2a2 2 0 0 0 2 2h8a2 2 0 0 0 2-2v-2h2v3a3 3 0 0 1 -3 3z"/><path d="m56.924 20.617a1 1 0 0 0 -.924-.617h-10.59a14 14 0 1 0 -26.82 0h-10.59a1 1 0 0 0 -1 1v36a5.006 5.006 0 0 0 5 5h40a5.006 5.006 0 0 0 5-5v-35.993a1.007 1.007 0 0 0 -.076-.39zm-47.924 9.383h46v24h-46zm46-3.414-1.586-1.586 1.586-1.586zm-1.414-4.586-2.293 2.293a1 1 0 0 0 0 1.414l2.293 2.293h-14.412a14.068 14.068 0 0 0 5.456-6zm-21.586-18a12 12 0 1 1 -12 12 12.013 12.013 0 0 1 12-12zm-12.63 18a14.068 14.068 0 0 0 5.456 6h-14.412l2.293-2.293a1 1 0 0 0 0-1.414l-2.293-2.293zm-10.37 1.414 1.586 1.586-1.586 1.586zm43 36.586h-40a3 3 0 0 1 -3-3v-1h46v1a3 3 0 0 1 -3 3z"/><path d="m33 19h-2a1 1 0 0 1 -1-1h-2a3 3 0 0 0 3 3v1h2v-1a3 3 0 0 0 0-6h-2a1 1 0 0 1 0-2h2a1 1 0 0 1 1 1h2a3 3 0 0 0 -3-3v-1h-2v1a3 3 0 0 0 0 6h2a1 1 0 0 1 0 2z"/><path d="m32 26a10 10 0 1 0 -10-10 10.011 10.011 0 0 0 10 10zm0-18a8 8 0 1 1 -8 8 8.009 8.009 0 0 1 8-8z"/><path d="m52 16a3 3 0 1 0 -3-3 3 3 0 0 0 3 3zm0-4a1 1 0 1 1 -1 1 1 1 0 0 1 1-1z"/><path d="m51 6h2v2h-2z"/><path d="m51 2h2v2h-2z"/><path d="m13 10a3 3 0 1 0 -3-3 3 3 0 0 0 3 3zm0-4a1 1 0 1 1 -1 1 1 1 0 0 1 1-1z"/><path d="m12 12h2v2h-2z"/><path d="m12 16h2v2h-2z"/></g></svg>